<svg xmlns="http://www.w3.org/2000/svg" version="1.1" xmlns:xlink="http://www.w3.org/1999/xlink" xmlns:svgjs="http://svgjs.com/svgjs" width="256pt" height="256pt"><svg width="256pt" height="256pt" viewBox="0 0 256 256" version="1.1" xmlns="http://www.w3.org/2000/svg">
<g id="SvgjsG1004">
<path fill="#057093" opacity="1.00" d=" M 60.31 0.00 L 67.70 0.00 C 70.29 1.71 73.13 3.60 74.25 6.65 C 75.17 9.67 75.09 12.88 75.15 16.00 C 74.98 20.38 75.35 25.58 71.86 28.86 C 67.61 33.31 59.61 33.06 55.66 28.34 C 52.64 25.01 53.04 20.17 52.85 16.01 C 52.91 12.88 52.83 9.67 53.74 6.65 C 54.86 3.60 57.72 1.72 60.31 0.00 Z"></path>
<path fill="#057093" opacity="1.00" d=" M 103.30 0.00 L 110.70 0.00 C 113.29 1.71 116.14 3.60 117.25 6.65 C 118.17 9.67 118.09 12.88 118.16 16.00 C 117.97 20.18 118.35 25.01 115.35 28.35 C 111.38 33.06 103.39 33.31 99.13 28.86 C 95.65 25.57 96.02 20.38 95.85 16.00 C 95.91 12.87 95.83 9.66 96.75 6.64 C 97.87 3.60 100.72 1.72 103.30 0.00 Z"></path>
<path fill="#057093" opacity="1.00" d=" M 145.31 0.00 L 152.70 0.00 C 155.29 1.71 158.14 3.60 159.25 6.65 C 160.17 9.67 160.09 12.87 160.16 16.00 C 159.97 20.18 160.36 25.02 157.37 28.37 C 153.23 33.27 144.77 33.28 140.64 28.36 C 137.65 25.02 138.03 20.18 137.84 16.00 C 137.91 12.87 137.83 9.67 138.75 6.64 C 139.86 3.60 142.72 1.72 145.31 0.00 Z"></path>
<path fill="#057093" opacity="1.00" d=" M 188.30 0.00 L 195.70 0.00 C 198.29 1.71 201.13 3.60 202.24 6.65 C 203.16 9.67 203.09 12.88 203.17 16.01 C 203.01 20.40 203.39 25.61 199.90 28.90 C 195.63 33.35 187.59 33.12 183.62 28.38 C 180.64 25.02 181.02 20.18 180.84 16.00 C 180.91 12.87 180.83 9.67 181.74 6.65 C 182.87 3.60 185.72 1.72 188.30 0.00 Z"></path>
<path fill="#057093" opacity="1.00" d=" M 64.13 56.13 C 77.72 55.98 91.32 55.84 104.90 56.21 C 105.18 61.47 105.15 66.73 105.03 72.00 C 104.87 90.99 105.22 110.00 104.95 128.99 C 104.84 137.88 104.43 146.77 104.63 155.67 C 112.42 156.43 120.20 155.13 128.00 155.33 C 140.27 155.45 152.54 155.28 164.82 155.23 C 165.13 166.12 165.16 177.03 164.92 187.93 C 133.95 188.30 102.97 187.56 72.00 188.07 C 69.03 188.21 65.96 187.96 63.39 186.32 C 64.16 178.91 63.76 171.44 63.86 164.00 C 64.02 128.04 63.91 92.08 64.13 56.13 Z"></path>
<path fill="#057093" opacity="1.00" d=" M 127.32 56.44 C 128.83 56.04 130.40 56.02 131.96 55.97 C 149.32 56.04 166.67 56.04 184.03 55.88 C 186.64 55.94 190.07 55.77 191.42 58.53 C 192.59 61.77 192.43 65.43 191.73 68.76 C 190.76 72.07 186.87 72.21 184.03 72.16 C 166.00 71.96 147.97 72.09 129.94 72.01 C 126.96 72.35 124.11 70.08 124.06 67.03 C 123.83 63.45 123.11 58.00 127.32 56.44 Z"></path>
<path fill="#057093" opacity="1.00" d=" M 127.35 89.42 C 132.16 88.41 137.12 89.01 142.00 88.93 C 152.58 88.89 163.17 88.99 173.76 88.84 C 178.72 88.96 183.75 88.61 188.66 89.49 C 191.63 89.99 192.01 93.53 192.14 95.96 C 192.09 98.66 192.35 102.10 190.03 103.99 C 187.23 105.30 184.00 104.95 181.00 105.05 C 170.07 104.93 159.13 104.82 148.19 105.08 C 141.51 104.97 134.78 105.60 128.13 104.80 C 124.36 104.44 123.62 100.06 123.73 97.00 C 123.75 94.21 124.09 90.26 127.35 89.42 Z"></path>
<path fill="#057093" opacity="1.00" d=" M 127.32 122.42 C 128.83 122.03 130.41 122.03 131.97 121.99 C 149.66 122.10 167.36 122.05 185.05 122.01 C 187.55 121.96 190.90 122.35 191.61 125.26 C 192.31 128.58 192.46 132.20 191.36 135.45 C 190.05 138.22 186.60 137.95 184.04 138.04 C 166.01 137.83 147.97 138.04 129.95 137.94 C 127.39 138.11 124.46 136.76 124.21 133.92 C 123.84 130.08 122.87 124.25 127.32 122.42 Z"></path>
</g>
<g id="SvgjsG1003">
<path fill="#6acbe7" opacity="1.00" d=" M 34.98 18.98 C 39.66 14.25 46.93 16.41 52.85 16.01 C 53.04 20.17 52.64 25.01 55.66 28.34 C 59.61 33.06 67.61 33.31 71.86 28.86 C 75.35 25.58 74.98 20.38 75.15 16.00 C 82.05 16.00 88.95 16.00 95.85 16.00 C 96.02 20.38 95.65 25.57 99.13 28.86 C 103.39 33.31 111.38 33.06 115.35 28.35 C 118.35 25.01 117.97 20.18 118.16 16.00 C 124.72 16.00 131.28 16.00 137.84 16.00 C 138.03 20.18 137.65 25.02 140.64 28.36 C 144.77 33.28 153.23 33.27 157.37 28.37 C 160.36 25.02 159.97 20.18 160.16 16.00 C 167.05 16.00 173.95 16.00 180.84 16.00 C 181.02 20.18 180.64 25.02 183.62 28.38 C 187.59 33.12 195.63 33.35 199.90 28.90 C 203.39 25.61 203.01 20.40 203.17 16.01 C 209.07 16.39 216.33 14.29 220.99 19.00 C 223.83 21.48 224.12 25.44 224.06 28.96 C 223.96 39.57 223.98 50.19 223.97 60.81 C 206.81 69.40 191.15 80.71 173.76 88.84 C 163.17 88.99 152.58 88.89 142.00 88.93 C 137.12 89.01 132.16 88.41 127.35 89.42 C 124.09 90.26 123.75 94.21 123.73 97.00 C 123.62 100.06 124.36 104.44 128.13 104.80 C 134.78 105.60 141.51 104.97 148.19 105.08 C 141.22 107.71 135.15 112.10 128.74 115.81 C 120.98 120.51 112.72 124.31 104.95 128.99 C 105.22 110.00 104.87 90.99 105.03 72.00 C 105.15 66.73 105.18 61.47 104.90 56.21 C 91.32 55.84 77.72 55.98 64.13 56.13 C 63.91 92.08 64.02 128.04 63.86 164.00 C 63.76 171.44 64.16 178.91 63.39 186.32 C 56.26 189.63 49.66 193.95 42.75 197.69 C 39.75 199.50 36.39 200.99 34.03 203.66 C 33.38 205.40 33.61 207.31 33.49 209.13 C 32.98 208.40 32.49 207.68 32.01 206.94 C 32.03 149.30 32.02 91.65 31.96 34.01 C 32.16 28.97 30.82 22.82 34.98 18.98 M 127.32 56.44 C 123.11 58.00 123.83 63.45 124.06 67.03 C 124.11 70.08 126.96 72.35 129.94 72.01 C 147.97 72.09 166.00 71.96 184.03 72.16 C 186.87 72.21 190.76 72.07 191.73 68.76 C 192.43 65.43 192.59 61.77 191.42 58.53 C 190.07 55.77 186.64 55.94 184.03 55.88 C 166.67 56.04 149.32 56.04 131.96 55.97 C 130.40 56.02 128.83 56.04 127.32 56.44 Z"></path>
</g>
<g id="SvgjsG1002">
<path fill="#50b9d7" opacity="1.00" d=" M 173.76 88.84 C 191.15 80.71 206.81 69.40 223.97 60.81 C 224.08 109.56 223.93 158.30 224.00 207.04 C 221.85 209.87 219.69 213.40 215.87 213.99 C 210.62 214.81 205.28 214.26 200.00 214.33 C 148.32 214.33 96.64 214.33 44.96 214.33 C 40.49 214.61 36.02 212.96 33.49 209.13 C 33.61 207.31 33.38 205.40 34.03 203.66 C 36.39 200.99 39.75 199.50 42.75 197.69 C 49.66 193.95 56.26 189.63 63.39 186.32 C 65.96 187.96 69.03 188.21 72.00 188.07 C 102.97 187.56 133.95 188.30 164.92 187.93 C 165.16 177.03 165.13 166.12 164.82 155.23 C 152.54 155.28 140.27 155.45 128.00 155.33 C 120.20 155.13 112.42 156.43 104.63 155.67 C 104.43 146.77 104.84 137.88 104.95 128.99 C 112.72 124.31 120.98 120.51 128.74 115.81 C 135.15 112.10 141.22 107.71 148.19 105.08 C 159.13 104.82 170.07 104.93 181.00 105.05 C 184.00 104.95 187.23 105.30 190.03 103.99 C 192.35 102.10 192.09 98.66 192.14 95.96 C 192.01 93.53 191.63 89.99 188.66 89.49 C 183.75 88.61 178.72 88.96 173.76 88.84 M 127.32 122.42 C 122.87 124.25 123.84 130.08 124.21 133.92 C 124.46 136.76 127.39 138.11 129.95 137.94 C 147.97 138.04 166.01 137.83 184.04 138.04 C 186.60 137.95 190.05 138.22 191.36 135.45 C 192.46 132.20 192.31 128.58 191.61 125.26 C 190.90 122.35 187.55 121.96 185.05 122.01 C 167.36 122.05 149.66 122.10 131.97 121.99 C 130.41 122.03 128.83 122.03 127.32 122.42 Z"></path>
</g>
<g id="SvgjsG1001">
<path fill="#dddddd" opacity="1.00" d=" M 32.01 206.94 C 32.49 207.68 32.98 208.40 33.49 209.13 C 36.02 212.96 40.49 214.61 44.96 214.33 C 96.64 214.33 148.32 214.33 200.00 214.33 C 205.28 214.26 210.62 214.81 215.87 213.99 C 219.69 213.40 221.85 209.87 224.00 207.04 C 223.90 214.03 224.04 221.02 223.99 228.01 C 221.98 230.57 220.06 233.77 216.65 234.55 C 212.16 235.42 207.55 234.93 203.00 235.01 C 153.00 234.99 103.00 234.99 53.00 235.01 C 48.45 234.93 43.84 235.42 39.34 234.58 C 35.93 233.79 34.01 230.59 32.01 228.02 C 31.95 220.99 32.04 213.97 32.01 206.94 Z"></path>
</g>
<g id="SvgjsG1000">
<path fill="#87400f" opacity="1.00" d=" M 32.01 228.02 C 34.01 230.59 35.93 233.79 39.34 234.58 C 43.84 235.42 48.45 234.93 53.00 235.01 C 103.00 234.99 153.00 234.99 203.00 235.01 C 207.55 234.93 212.16 235.42 216.65 234.55 C 220.06 233.77 221.98 230.57 223.99 228.01 C 223.76 234.62 224.49 241.27 223.73 247.85 C 223.30 251.72 219.76 253.91 216.91 256.00 L 39.10 256.00 C 36.24 253.91 32.70 251.72 32.27 247.85 C 31.50 241.27 32.25 234.62 32.01 228.02 Z"></path>
</g>
</svg><style>@media (prefers-color-scheme: light) { :root { filter: none; } }
</style></svg>