<?xml version="1.0" standalone="no"?>
<!DOCTYPE svg PUBLIC "-//W3C//DTD SVG 20010904//EN"
 "http://www.w3.org/TR/2001/REC-SVG-20010904/DTD/svg10.dtd">
<svg version="1.0" xmlns="http://www.w3.org/2000/svg"
 width="256.000000pt" height="256.000000pt" viewBox="0 0 256.000000 256.000000"
 preserveAspectRatio="xMidYMid meet">
<metadata>
Created by potrace 1.14, written by Peter Selinger 2001-2017
</metadata>
<g transform="translate(0.000000,256.000000) scale(0.100000,-0.100000)"
fill="#000000" stroke="none">
<path d="M588 2544 c-42 -22 -58 -63 -58 -144 0 -82 17 -123 60 -145 37 -19
63 -19 100 0 43 22 60 63 60 145 0 82 -17 123 -60 145 -36 19 -67 19 -102 -1z"/>
<path d="M1018 2544 c-42 -22 -58 -63 -58 -144 0 -82 17 -123 60 -145 37 -19
63 -19 100 0 43 22 60 63 60 145 0 82 -17 123 -60 145 -36 19 -67 19 -102 -1z"/>
<path d="M1438 2544 c-42 -22 -58 -63 -58 -144 0 -82 17 -123 60 -145 37 -19
63 -19 100 0 43 22 60 63 60 145 0 82 -17 123 -60 145 -36 19 -67 19 -102 -1z"/>
<path d="M1868 2544 c-42 -22 -58 -63 -58 -144 0 -82 17 -123 60 -145 37 -19
63 -19 100 0 43 22 60 63 60 145 0 82 -17 123 -60 145 -36 19 -67 19 -102 -1z"/>
<path d="M640 1340 l0 -660 505 0 505 0 0 163 0 162 -302 0 -303 0 0 495 0
495 -202 3 -203 2 0 -660z"/>
<path d="M1257 1982 c-11 -12 -17 -36 -17 -64 0 -80 -7 -78 342 -78 348 0 338
-2 338 82 0 80 7 78 -342 78 -283 0 -306 -1 -321 -18z"/>
<path d="M1257 1652 c-11 -12 -17 -36 -17 -64 0 -80 -7 -78 342 -78 348 0 338
-2 338 82 0 80 7 78 -342 78 -283 0 -306 -1 -321 -18z"/>
<path d="M1257 1322 c-11 -12 -17 -36 -17 -64 0 -80 -7 -78 342 -78 348 0 338
-2 338 82 0 80 7 78 -342 78 -283 0 -306 -1 -321 -18z"/>
<path d="M322 167 c3 -101 4 -108 31 -134 l27 -28 900 0 900 0 27 28 c27 26
28 33 31 134 l4 106 -32 -31 -32 -32 -898 0 -898 0 -32 32 -32 31 4 -106z"/>
</g>
</svg>
